<svg width="990" height="175" viewBox="0 0 990 175" fill="none" xmlns="http://www.w3.org/2000/svg">
<path d="M87.1408 0L0 63.2988V174.282H55.4914L47.2083 162.193H10.6757V67.9301L87.1408 12.0889L165.761 67.9301V162.193C165.761 162.193 93.633 162.193 69.5951 162.193C65.2716 162.193 62.3613 159.352 62.3613 154.903C62.3613 149.53 63.3827 145.836 84.2305 145.836C129.256 145.836 141.093 72.6733 129.676 56.065C117.097 72.2535 85.126 55.4494 58.5976 79.8231C31.6494 104.253 47.7539 144.619 47.8379 144.115C49.2371 135.79 56.2329 126.542 56.6947 118.846C57.6041 103.455 59.2412 94.5284 60.4725 92.4437C60.0667 94.5284 58.9893 105.47 60.4725 118.846C60.5144 119.252 70.5185 107.723 71.2741 107.023C71.0642 97.5786 72.4074 87.8683 77.3605 81.698C74.1004 87.3646 73.6947 95.7457 74.4922 104.113C86.8609 93.4371 105.96 79.2914 118.482 81.1523C107.023 81.2362 90.5827 96.4593 79.5992 105.218C90.7506 103.623 98.74 104.029 106.631 106.687C96.5433 104.812 76.507 109.821 73.5548 112.004C59.3251 122.554 39.4848 153.462 57.2124 169.021C61.1441 172.477 66.2511 174.282 71.484 174.282H176.772V63.2988L87.1408 0ZM62.949 126.724C68.7836 118.986 78.7597 117.993 86.2033 124.163C86.6511 124.545 87.0522 124.961 87.4066 125.408C79.2354 122.064 69.3572 122.666 62.0535 127.787C62.352 127.423 62.6505 127.069 62.949 126.724Z" fill="url(#paint0_radial_1_5)"/>
<path d="M209.821 170.518V63.3128C209.821 62.6785 210.133 62.3614 210.758 62.3614H219.083C219.708 62.3614 220.021 62.6785 220.021 63.3128V162.514H246.227C257.85 162.514 266.277 161.516 271.51 159.52C272.135 159.418 272.499 159.628 272.602 160.15L274.169 167.216C274.383 167.738 274.173 168.107 273.539 168.321C270.61 169.571 266.79 170.406 262.08 170.826C257.379 171.245 252.094 171.455 246.227 171.455H210.758C210.133 171.455 209.821 171.143 209.821 170.518Z" fill="#3C796D"/>
<path d="M296.15 170.518V63.3128C296.15 62.6785 296.462 62.3614 297.087 62.3614H353.278C353.903 62.3614 354.216 62.6785 354.216 63.3128V70.2107C354.216 70.845 353.903 71.1622 353.278 71.1622H306.35V108.198H346.212C346.847 108.198 347.164 108.511 347.164 109.136V116.048C347.164 116.673 346.847 116.985 346.212 116.985H306.35V162.514H333.34C339.095 162.514 344.067 162.197 348.255 161.563C352.443 160.938 355.895 160.257 358.609 159.52C359.243 159.418 359.612 159.628 359.715 160.15L361.282 167.216C361.496 167.738 361.286 168.107 360.652 168.321C354.374 170.41 345.27 171.455 333.34 171.455H297.087C296.462 171.455 296.15 171.143 296.15 170.518Z" fill="#3C796D"/>
<path d="M440.083 136.448H395.505L382.479 170.672C382.367 171.194 381.999 171.455 381.374 171.455H372.265C371.538 171.455 371.332 171.091 371.65 170.364L413.401 63.1589C413.709 62.6365 414.073 62.3707 414.492 62.3614H421.236C421.871 62.3707 422.239 62.6365 422.342 63.1589L464.093 170.364C464.298 171.091 464.088 171.455 463.464 171.455H454.355C453.73 171.455 453.366 171.194 453.264 170.672L440.083 136.448ZM422.664 90.9326L417.794 76.493L412.771 90.9326L398.808 127.493H436.627L422.664 90.9326Z" fill="#3C796D"/>
<path d="M484.493 170.518V63.3128C484.493 62.6785 484.81 62.3614 485.445 62.3614H510.084C529.654 62.3707 544.406 67.0533 554.34 76.4091C564.284 85.7836 569.255 98.9965 569.255 116.048C569.255 127.773 566.821 137.768 561.952 146.032C557.092 154.297 550.32 160.602 541.636 164.949C532.942 169.286 522.845 171.455 511.343 171.455H485.445C484.81 171.455 484.493 171.143 484.493 170.518ZM494.707 162.514H511.343C520.858 162.514 529.174 160.812 536.291 157.407C543.408 154.012 548.981 148.858 553.011 141.947C557.041 135.044 559.055 126.462 559.055 116.202C559.055 101.557 555.133 90.3869 547.288 82.6914C539.434 75.0053 527.033 71.1622 510.084 71.1622H494.707V162.514Z" fill="#3C796D"/>
<path d="M641.453 170.518V63.3128C641.453 62.6785 641.77 62.3614 642.404 62.3614H673.48C681.642 62.3707 688.339 63.7325 693.572 66.447C698.805 69.1707 702.676 72.8086 705.185 77.3605C707.695 81.9125 708.949 86.9589 708.949 92.4996C708.949 100.456 706.934 107.074 702.905 112.354C698.875 117.643 693.46 121.57 686.66 124.135C679.86 126.7 672.328 127.983 664.064 127.983C659.978 127.983 655.846 127.666 651.667 127.031V170.518C651.667 171.143 651.35 171.455 650.715 171.455H642.404C641.77 171.455 641.453 171.143 641.453 170.518ZM651.667 117.769C653.962 118.189 656.238 118.529 658.495 118.79C660.743 119.051 662.963 119.182 665.155 119.182C671.433 119.191 677.085 118.305 682.113 116.524C687.131 114.742 691.105 111.916 694.034 108.044C696.963 104.173 698.427 99.1504 698.427 92.9753C698.427 85.5504 695.918 80.0283 690.9 76.4091C685.872 72.7992 679.016 70.9943 670.332 70.9943H651.667V117.769Z" fill="#3C796D"/>
<path d="M782.252 136.448H737.674L724.648 170.672C724.545 171.194 724.177 171.455 723.543 171.455H714.448C713.711 171.455 713.501 171.091 713.818 170.364L755.57 63.1589C755.878 62.6365 756.241 62.3707 756.661 62.3614H763.419C764.044 62.3707 764.408 62.6365 764.51 63.1589L806.262 170.364C806.477 171.091 806.267 171.455 805.632 171.455H796.538C795.903 171.455 795.535 171.194 795.432 170.672L782.252 136.448ZM764.832 90.9326L759.963 76.493L754.94 90.9326L740.976 127.493H778.796L764.832 90.9326Z" fill="#3C796D"/>
<path d="M826.676 170.518V63.3128C826.676 62.6785 826.988 62.3614 827.613 62.3614H856.339C868.474 62.3614 877.419 65.0338 883.175 70.3786C888.93 75.7142 891.808 82.5655 891.808 90.9326C891.808 98.9918 889.56 105.689 885.064 111.025C880.558 116.36 874.752 120.231 867.644 122.638L883.65 147.445C886.579 151.839 889.037 155.187 891.024 157.491C893.011 159.795 894.923 161.311 896.761 162.039C898.589 162.776 900.548 163.195 902.637 163.298C903.262 163.298 903.575 163.61 903.575 164.235V171.147C903.575 171.772 903.262 172.085 902.637 172.085C898.971 171.982 895.651 171.329 892.675 170.126C889.69 168.923 886.785 166.88 883.958 163.998C881.132 161.125 878.1 157.174 874.864 152.147L857.43 124.989C850.844 125.94 843.993 125.837 836.876 124.681V170.518C836.876 171.143 836.559 171.455 835.925 171.455H827.613C826.988 171.455 826.676 171.143 826.676 170.518ZM836.876 70.9943V115.418C844.823 116.883 852.174 116.99 858.927 115.74C865.671 114.481 871.086 111.836 875.171 107.807C879.248 103.777 881.291 98.3109 881.3 91.4083C881.3 83.974 878.786 78.7131 873.758 75.6256C868.74 72.5474 862.15 71.0036 853.988 70.9943H836.876Z" fill="#3C796D"/>
<path d="M909.227 71.1622C908.603 71.1622 908.29 70.845 908.29 70.2107V63.3128C908.29 62.6785 908.603 62.3614 909.227 62.3614H988.967C989.592 62.3614 989.904 62.6785 989.904 63.3128V70.2107C989.904 70.845 989.592 71.1622 988.967 71.1622H954.281V170.518C954.281 171.143 953.964 171.455 953.33 171.455H945.018C944.393 171.455 944.081 171.143 944.081 170.518V71.1622H909.227Z" fill="#3C796D"/>
<defs>
<radialGradient id="paint0_radial_1_5" cx="0" cy="0" r="1" gradientTransform="matrix(33.8629 -41.4534 73.2455 19.1645 90.7716 105.351)" gradientUnits="userSpaceOnUse">
<stop stop-color="#568D5D"/>
<stop offset="1" stop-color="#3B776A"/>
</radialGradient>
</defs>
</svg>
