<svg width="134" height="99" viewBox="0 0 134 99" fill="none" xmlns="http://www.w3.org/2000/svg">
<path d="M65.1906 0L26.1506 28.36V78.08H51.0106L47.3006 72.66H30.9306V30.43L65.1906 5.41L100.411 30.43V72.66C100.411 72.66 68.1006 72.66 57.3306 72.66C55.3906 72.66 54.0906 71.39 54.0906 69.4C54.0906 66.99 54.5406 65.34 63.8906 65.34C84.0606 65.34 89.3606 32.56 84.2506 25.12C78.6106 32.38 64.2906 24.85 52.4006 35.76C40.3306 46.71 47.5406 64.79 47.5806 64.56C48.2106 60.83 51.3406 56.69 51.5506 53.24C51.9606 46.34 52.6906 42.35 53.2406 41.41C53.0606 42.35 52.5806 47.24 53.2406 53.24C53.2606 53.42 57.7506 48.26 58.0806 47.94C57.9906 43.71 58.5906 39.36 60.8006 36.6C59.3406 39.14 59.1606 42.89 59.5106 46.64C65.0506 41.86 73.6106 35.52 79.2206 36.36C74.0906 36.39 66.7206 43.21 61.8006 47.14C66.8006 46.42 70.3806 46.6 73.9106 47.8C69.4006 46.96 60.4206 49.2 59.1006 50.18C52.7206 54.91 43.8406 68.75 51.7806 75.73C53.5406 77.28 55.8306 78.08 58.1706 78.08H105.341V28.36L65.1906 0ZM54.3506 56.77C56.9706 53.31 61.4306 52.86 64.7706 55.62C64.9706 55.79 65.1506 55.98 65.3106 56.18C61.6506 54.68 57.2306 54.95 53.9606 57.25C54.0806 57.08 54.2206 56.92 54.3506 56.77Z" fill="white"/>
<path d="M0 98.4367V83.164H9.15767V84.8046H1.84943V89.9651H8.47159V91.6057H1.84943V98.4367H0Z" fill="white"/>
<path d="M12.3252 98.4367V83.164H17.4857C18.6789 83.164 19.6583 83.3678 20.4239 83.7755C21.1895 84.1782 21.7563 84.7325 22.1242 85.4385C22.4921 86.1444 22.676 86.9473 22.676 87.8472C22.676 88.7471 22.4921 89.545 22.1242 90.241C21.7563 90.937 21.192 91.4839 20.4314 91.8816C19.6707 92.2744 18.6988 92.4708 17.5155 92.4708H13.3394V90.8003H17.4559C18.2712 90.8003 18.9275 90.681 19.4246 90.4424C19.9268 90.2037 20.2897 89.8657 20.5134 89.4282C20.7421 88.9857 20.8564 88.4587 20.8564 87.8472C20.8564 87.2357 20.7421 86.7013 20.5134 86.2439C20.2847 85.7865 19.9193 85.4335 19.4172 85.1849C18.915 84.9314 18.2513 84.8046 17.426 84.8046H14.1746V98.4367H12.3252ZM19.5141 91.5759L23.2726 98.4367H21.1249L17.426 91.5759H19.5141Z" fill="white"/>
<path d="M38.6442 90.8003C38.6442 92.4111 38.3533 93.8032 37.7717 94.9765C37.19 96.1498 36.392 97.0546 35.3778 97.691C34.3636 98.3273 33.2053 98.6455 31.9027 98.6455C30.6001 98.6455 29.4418 98.3273 28.4276 97.691C27.4134 97.0546 26.6154 96.1498 26.0337 94.9765C25.4521 93.8032 25.1612 92.4111 25.1612 90.8003C25.1612 89.1895 25.4521 87.7975 26.0337 86.6242C26.6154 85.4509 27.4134 84.5461 28.4276 83.9097C29.4418 83.2733 30.6001 82.9552 31.9027 82.9552C33.2053 82.9552 34.3636 83.2733 35.3778 83.9097C36.392 84.5461 37.19 85.4509 37.7717 86.6242C38.3533 87.7975 38.6442 89.1895 38.6442 90.8003ZM36.8544 90.8003C36.8544 89.4779 36.6332 88.3618 36.1907 87.452C35.7532 86.5422 35.1591 85.8536 34.4084 85.3863C33.6626 84.9189 32.8274 84.6853 31.9027 84.6853C30.978 84.6853 30.1403 84.9189 29.3896 85.3863C28.6438 85.8536 28.0497 86.5422 27.6072 87.452C27.1697 88.3618 26.951 89.4779 26.951 90.8003C26.951 92.1228 27.1697 93.2389 27.6072 94.1487C28.0497 95.0585 28.6438 95.7471 29.3896 96.2144C30.1403 96.6817 30.978 96.9154 31.9027 96.9154C32.8274 96.9154 33.6626 96.6817 34.4084 96.2144C35.1591 95.7471 35.7532 95.0585 36.1907 94.1487C36.6332 93.2389 36.8544 92.1228 36.8544 90.8003Z" fill="white"/>
<path d="M53.8647 83.164V98.4367H52.0749L43.7525 86.4452H43.6033V98.4367H41.7539V83.164H43.5437L51.896 95.1853H52.0451V83.164H53.8647Z" fill="white"/>
<path d="M56.7302 84.8046V83.164H68.1847V84.8046H63.3822V98.4367H61.5328V84.8046H56.7302Z" fill="white"/>
<path d="M71.0391 98.4367V83.164H80.2564V84.8046H72.8885V89.9651H79.7791V91.6057H72.8885V96.7961H80.3757V98.4367H71.0391Z" fill="white"/>
<path d="M84.2163 98.4367H82.2773L87.8853 83.164H89.7944L95.4023 98.4367H93.4634L88.8995 85.5802H88.7802L84.2163 98.4367ZM84.9322 92.4708H92.7475V94.1114H84.9322V92.4708Z" fill="white"/>
<path d="M97.7812 98.4367V83.164H99.6307V96.7961H106.73V98.4367H97.7812Z" fill="white"/>
<path d="M109.594 98.4367V83.164H118.811V84.8046H111.443V89.9651H118.334V91.6057H111.443V96.7961H118.93V98.4367H109.594Z" fill="white"/>
<path d="M122.145 98.4367V83.164H127.305C128.498 83.164 129.478 83.3678 130.243 83.7755C131.009 84.1782 131.576 84.7325 131.944 85.4385C132.311 86.1444 132.495 86.9473 132.495 87.8472C132.495 88.7471 132.311 89.545 131.944 90.241C131.576 90.937 131.011 91.4839 130.251 91.8816C129.49 92.2744 128.518 92.4708 127.335 92.4708H123.159V90.8003H127.275C128.091 90.8003 128.747 90.681 129.244 90.4424C129.746 90.2037 130.109 89.8657 130.333 89.4282C130.561 88.9857 130.676 88.4587 130.676 87.8472C130.676 87.2357 130.561 86.7013 130.333 86.2439C130.104 85.7865 129.739 85.4335 129.237 85.1849C128.734 84.9314 128.071 84.8046 127.245 84.8046H123.994V98.4367H122.145ZM129.333 91.5759L133.092 98.4367H130.944L127.245 91.5759H129.333Z" fill="white"/>
</svg>
