<svg width="21" height="21" viewBox="0 0 21 21" fill="none" xmlns="http://www.w3.org/2000/svg">
<path d="M10.06 0L0 7.31V20.12H6.41L5.45 18.72H1.24V7.84L10.07 1.39L19.14 7.84V18.72C19.14 18.72 10.82 18.72 8.04 18.72C7.54 18.72 7.2 18.39 7.2 17.88C7.2 17.26 7.32 16.83 9.72 16.83C14.92 16.83 16.28 8.38 14.97 6.47C13.52 8.34 9.83 6.4 6.76 9.21C3.65 12.03 5.51 16.69 5.52 16.63C5.68 15.67 6.49 14.6 6.54 13.71C6.65 11.93 6.83 10.9 6.98 10.66C6.93 10.9 6.81 12.16 6.98 13.71C6.99 13.76 8.14 12.43 8.23 12.35C8.21 11.26 8.36 10.14 8.93 9.43C8.55 10.08 8.51 11.05 8.6 12.02C10.03 10.79 12.23 9.15 13.68 9.37C12.36 9.38 10.46 11.14 9.19 12.15C10.48 11.97 11.4 12.01 12.31 12.32C11.15 12.1 8.83 12.68 8.49 12.93C6.85 14.15 4.56 17.72 6.6 19.51C7.05 19.91 7.64 20.12 8.25 20.12H20.4V7.31L10.06 0ZM7.27 14.63C7.94 13.74 9.09 13.62 9.96 14.33C10.01 14.37 10.06 14.42 10.1 14.47C9.16 14.08 8.02 14.15 7.17 14.75C7.2 14.71 7.24 14.67 7.27 14.63Z" fill="url(#paint0_radial_10_5)"/>
<defs>
<radialGradient id="paint0_radial_10_5" cx="0" cy="0" r="1" gradientUnits="userSpaceOnUse" gradientTransform="translate(10.5911 12.0496) scale(9.31798 5.26583)">
<stop stop-color="#568D5D"/>
<stop offset="0.5851" stop-color="#548B5E"/>
<stop offset="0.7955" stop-color="#4D8661"/>
<stop offset="0.9453" stop-color="#427C67"/>
<stop offset="1" stop-color="#3B776A"/>
</radialGradient>
</defs>
</svg>
