<svg version="1.2" xmlns="http://www.w3.org/2000/svg" viewBox="0 0.07086181640397626 850.3937377929681 566.929138183596" width="1190.5511811023623" height="793.2344532139124">
	<defs>
		<radialGradient id="g1" cx="0" cy="0" r="1" gradientUnits="userSpaceOnUse" gradientTransform="matrix(24.202,-29.627,52.349,13.697,136.325,235.275)">
			<stop offset="0" stop-color="#568d5d"/>
			<stop offset="1" stop-color="#3b776a"/>
		</radialGradient>
	</defs>
	<style>
		.s0 { fill: url(#g1) } 
		.s1 { fill: #3c796d } 
		.s2 { fill: #000000;stroke: #0a0a0a;stroke-miterlimit:10;stroke-width: .5 } 
		.s3 { fill: #a8a8a8 } 
	</style>
	<g id="레이어 1">
		<g id="&lt;Group&gt;">
			<g id="&lt;Group&gt;">
				<path id="&lt;Compound Path&gt;" class="s0" d="m133.73 159.98l-62.28 45.24v79.32h39.66l-5.92-8.64h-26.11v-67.37l54.65-39.91 56.19 39.91v67.37c0 0-51.55 0-68.73 0-3.09 0-5.17-2.03-5.17-5.21 0-3.84 0.73-6.48 15.63-6.48 32.18 0 40.64-52.29 32.48-64.16-8.99 11.57-31.84-0.44-50.8 16.98-19.26 17.46-7.75 46.31-7.69 45.95 1-5.95 6-12.56 6.33-18.06 0.65-11 1.82-17.38 2.7-18.87-0.29 1.49-1.06 9.31 0 18.87 0.03 0.29 7.18-7.95 7.72-8.45-0.15-6.75 0.81-13.69 4.35-18.1-2.33 4.05-2.62 10.04-2.05 16.02 8.84-7.63 22.49-17.74 31.44-16.41-8.19 0.06-19.94 10.94-27.79 17.2 7.97-1.14 13.68-0.85 19.32 1.05-7.21-1.34-21.53 2.24-23.64 3.8-10.17 7.54-24.35 29.63-11.68 40.75 2.81 2.47 6.46 3.76 10.2 3.76h75.25v-79.32zm-17.29 90.57c4.17-5.53 11.3-6.24 16.62-1.83q0 0 0 0 0.48 0.41 0.86 0.89c-5.84-2.39-12.9-1.96-18.12 1.7q0.32-0.39 0.64-0.76z"/>
				<g id="&lt;Group&gt;">
					<path id="&lt;Compound Path&gt;" class="s1" d="m221.41 281.85v-76.62q0-0.68 0.67-0.68h5.95q0.67 0 0.67 0.68v70.9h18.73q12.46 0 18.07-2.14 0.67-0.11 0.78 0.45l1.12 5.05q0.23 0.56-0.45 0.79-3.14 1.34-8.19 1.79-5.04 0.45-11.33 0.45h-25.35q-0.67 0-0.67-0.67z"/>
					<path id="&lt;Compound Path&gt;" class="s1" d="m283.11 281.85v-76.62q0-0.68 0.67-0.68h40.16q0.67 0 0.67 0.68v4.93q0 0.68-0.67 0.68h-33.54v26.47h28.49q0.68 0 0.68 0.67v4.94q0 0.67-0.68 0.67h-28.49v32.54h19.29q6.17 0 10.66-0.68 4.49-0.67 7.4-1.46 0.68-0.11 0.79 0.45l1.12 5.05q0.23 0.56-0.45 0.79-6.73 2.24-19.52 2.24h-25.91q-0.67 0-0.67-0.67z"/>
					<path id="&lt;Compound Path&gt;" class="s1" d="m385.98 257.5h-31.86l-9.31 24.46q-0.12 0.56-0.79 0.56h-6.51q-0.78 0-0.44-0.78l29.84-76.62q0.33-0.56 0.78-0.57h4.82q0.68 0.01 0.79 0.57l29.84 76.62q0.22 0.78-0.45 0.78h-6.51q-0.67 0-0.78-0.56zm-12.45-32.53l-3.48-10.32-3.59 10.32-9.98 26.13h27.03z"/>
					<path id="&lt;Compound Path&gt;" class="s1" d="m417.72 281.85v-76.62q0-0.68 0.68-0.68h17.61q20.98 0.01 31.63 10.04 10.66 10.05 10.66 28.33 0 12.57-5.22 21.43-5.21 8.86-14.52 13.52-9.32 4.65-21.65 4.65h-18.51q-0.68 0-0.68-0.67zm7.3-5.72h11.89q10.2 0 17.83-3.65 7.63-3.64 11.95-11.05 4.32-7.4 4.32-18.4 0-15.7-8.41-23.95-8.42-8.24-26.59-8.24h-10.99z"/>
					<path id="&lt;Compound Path&gt;" class="s1" d="m529.9 281.85v-76.62q0-0.68 0.68-0.68h22.21q8.75 0.01 14.36 2.92 5.61 2.92 8.3 7.8 2.69 4.88 2.69 10.82 0 8.53-4.32 14.19-4.32 5.67-11.61 8.42-7.29 2.75-16.15 2.75-4.38 0-8.86-0.68v31.08q0 0.67-0.68 0.67h-5.94q-0.68 0-0.68-0.67zm7.3-37.7q2.46 0.45 4.88 0.73 2.41 0.28 4.76 0.28 6.73 0.01 12.12-1.9 5.38-1.91 8.52-6.06 3.14-4.15 3.14-10.77 0-7.96-5.38-11.84-5.39-3.87-14.7-3.87h-13.34z"/>
					<path id="&lt;Compound Path&gt;" class="s1" d="m630.53 257.5h-31.86l-9.31 24.46q-0.11 0.56-0.79 0.56h-6.5q-0.79 0-0.45-0.78l29.84-76.62q0.33-0.56 0.78-0.57h4.83q0.67 0.01 0.78 0.57l29.84 76.62q0.23 0.78-0.45 0.78h-6.5q-0.68 0-0.79-0.56zm-12.45-32.53l-3.48-10.32-3.59 10.32-9.98 26.13h27.03z"/>
					<path id="&lt;Compound Path&gt;" class="s1" d="m662.28 281.85v-76.62q0-0.68 0.67-0.68h20.53q13.01 0 19.18 5.73 6.17 5.72 6.17 14.69 0 8.64-4.82 14.36-4.83 5.72-12.45 8.3l11.44 17.73q3.14 4.71 5.27 7.18 2.13 2.47 4.1 3.25 1.96 0.79 4.2 0.9 0.67 0 0.67 0.67v4.94q0 0.67-0.67 0.67-3.93-0.11-7.12-1.4-3.2-1.29-6.23-4.38-3.03-3.08-6.5-8.47l-12.46-19.41q-7.06 1.02-14.69-0.22v32.76q0 0.67-0.68 0.67h-5.94q-0.67 0-0.67-0.67zm7.29-71.13v31.75q8.52 1.57 15.76 0.23 7.23-1.35 11.61-5.67 4.37-4.32 4.38-11.72 0-7.97-5.39-11.28-5.38-3.3-14.13-3.31z"/>
					<path id="&lt;Compound Path&gt;" class="s1" d="m721.28 210.84q-0.67 0-0.67-0.68v-4.93q0-0.68 0.67-0.68h56.99q0.67 0 0.67 0.68v4.93q0 0.68-0.67 0.68h-24.79v71.01q0 0.67-0.68 0.67h-5.94q-0.67 0-0.67-0.67v-71.01z"/>
				</g>
			</g>
			<g id="&lt;Group&gt;">
				<g id="&lt;Group&gt;">
					<path id="&lt;Compound Path&gt;" class="s2" d="m83.5 355.04q-1.58-1.06-2.88-2.89-1.31-1.84-2.24-4.17-0.94-2.33-1.44-4.94-0.49-2.61-0.49-5.25 0-2.64 0.49-5.25 0.5-2.6 1.44-4.94 0.93-2.33 2.24-4.16 1.3-1.84 2.88-2.9l1.21 1.21q-1.47 1.17-2.85 3.36-1.37 2.18-2.25 5.34-0.88 3.16-0.88 7.34 0 4.15 0.88 7.33 0.88 3.17 2.25 5.34 1.38 2.16 2.85 3.37z"/>
					<path id="&lt;Compound Path&gt;" class="s2" d="m104.24 352.55q-0.15 0-0.15-0.18v-12.08q-4.4 0.07-8 0.24-3.6 0.16-5.65 0.34-0.41 0.04-0.55-0.07-0.15-0.11-0.23-0.33-0.14-0.4-0.25-0.82-0.11-0.43-0.26-1.05-0.04-0.07 0.04-0.2 0.07-0.13 0.25-0.09 1.4 0.18 3.8 0.23 2.41 0.06 5.31 0.06 2.83 0 5.96-0.07 3.14-0.08 6.12-0.19 2.97-0.11 5.3-0.29 2.33-0.19 3.54-0.41 0.37-0.07 0.48 0.04 0.11 0.11 0.15 0.29l0.22 1.77q0 0.18-0.11 0.33-0.11 0.14-0.59 0.14-1.25-0.03-2.9-0.03-1.65 0-3.52 0-1.73 0-3.42 0.02-1.69 0.01-3.34 0.05v11.38q0 0.55-0.05 0.66-0.06 0.11-0.24 0.15-0.15 0-0.55 0.02-0.41 0.01-0.81 0.05-0.4 0.04-0.55 0.04zm-9.03-17.18q-0.22 0.15-0.53 0.13-0.32-0.02-0.61-0.43l-0.7-0.84q-0.11-0.18-0.02-0.24 0.1-0.05 0.21-0.09h0.03q4.59-1.54 7.46-3.89 2.86-2.35 3.45-5.21-0.96 0.03-1.66 0.05-0.69 0.02-0.99 0.06-0.59 0.03-1.74 0.12-1.16 0.1-2.31 0.17-1.16 0.07-1.78 0.15-0.41 0.07-0.52-0.08-0.11-0.14-0.22-0.36v-0.04q-0.15-0.4-0.22-0.7-0.07-0.29-0.22-0.92-0.04-0.07 0.04-0.18 0.07-0.11 0.25-0.07 0.92 0.07 2.67 0.11 1.74 0.03 3.96 0.01 2.22-0.01 4.55-0.11 2.33-0.09 4.45-0.27 2.11-0.18 3.61-0.44 0.11-0.04 0.26 0.02 0.14 0.05 0.18 0.24 0.04 0.22 0.09 0.51 0.06 0.29 0.1 0.59l0.07 0.7q0.07 0.4-0.44 0.4l-4.52-0.04q-0.55 0-1.34 0-0.79 0-1.63 0.04-0.44 1.65-1.32 3.08 3.01 1.14 5.38 2.06 2.36 0.92 4.16 1.98 0.19 0.11 0.37 0.31 0.18 0.21 0.07 0.5-0.18 0.4-0.4 0.86-0.22 0.46-0.51 0.9-0.15 0.26-0.37 0.07-1.18-1.06-2.88-2.07-1.71-1.01-3.51-1.85-1.8-0.85-3.34-1.36-1.76 2.09-4.28 3.56-2.51 1.47-5.3 2.57z"/>
					<path id="&lt;Compound Path&gt;" class="s2" d="m125.93 355.04l-1.21-1.21q1.47-1.21 2.85-3.37 1.37-2.17 2.26-5.34 0.88-3.18 0.88-7.33 0-4.18-0.88-7.34-0.89-3.16-2.26-5.34-1.38-2.19-2.85-3.36l1.21-1.21q1.58 1.06 2.89 2.9 1.3 1.83 2.24 4.16 0.93 2.34 1.43 4.94 0.49 2.61 0.49 5.25 0 2.64-0.49 5.25-0.5 2.61-1.43 4.94-0.94 2.33-2.23 4.17-1.28 1.83-2.9 2.89z"/>
					<path id="&lt;Compound Path&gt;" class="s2" d="m142.38 344.84q-0.81-0.04-1.25-0.81-0.44-0.77-0.44-1.94v-5.36q0-0.74-0.03-1.58-0.04-0.85-0.3-1.58-0.18-0.44 0.33-0.37 0.44 0.04 1.6 0.04 1.15 0 2.62-0.04 1.47-0.03 2.9-0.09 1.43-0.05 2.44-0.15 1.01-0.09 1.16-0.16 0.11-0.77 0.22-1.95 0.11-1.17 0.24-2.36 0.13-1.2 0.17-1.97 0-0.22-0.19-0.22-1.58 0-3.25 0.09-1.67 0.09-3.21 0.17-0.88 0.07-1.91 0.14-1.03 0.08-1.91 0.15-0.4 0.04-0.49-0.05-0.09-0.1-0.17-0.32l-0.4-1.46q-0.04-0.08 0.03-0.17 0.08-0.09 0.19-0.05 0.26 0.03 1.3 0.03 1.05 0 2.5-0.03 1.45-0.04 2.97-0.13 1.52-0.09 2.81-0.19 1.28-0.09 1.95-0.24 0.18-0.07 0.29-0.05 0.11 0.02 0.18 0.02 0.08 0.04 0.11 0.03l1.73 0.45q0.29 0.07 0.22 0.25-0.04 0.3-0.15 0.9-0.11 0.61-0.22 1.23-0.11 0.63-0.18 1.03l-0.85 6.31q-0.03 0.33-0.36 0.33-0.41 0-1.4 0.04-0.99 0.04-2.27 0.07-1.29 0.04-2.57 0.11-1.29 0.08-2.32 0.13-1.03 0.06-1.47 0.09v6.72q0 0.37 0.13 0.5 0.13 0.13 0.32 0.16 1.1 0.08 3.08-0.09 1.98-0.16 4.29-0.57 2.32-0.4 4.54-0.99 2.22-0.59 3.8-1.39 0.36-0.15 0.4 0.07l0.07 0.51 0.11 0.81q0 0.19-0.05 0.31-0.06 0.13-0.31 0.24-1.21 0.55-3.25 1.12-2.04 0.57-4.48 1.07-2.44 0.49-4.86 0.82-2.43 0.33-4.41 0.37zm18.76 7.64q-0.15 0-0.15-0.19v-26.5q0-1.4-0.09-2.59-0.09-1.19-0.27-1.56-0.08-0.18 0.01-0.28 0.1-0.09 0.24-0.09 0.22 0 0.76 0.02 0.53 0.02 1.04 0.04 0.51 0.01 0.59 0.01 0.18 0 0.18 0.3-0.11 1.36-0.13 2.37-0.01 1.01-0.01 2.33v25.22q0 0.55-0.06 0.66-0.05 0.11-0.24 0.15z"/>
					<path id="&lt;Compound Path&gt;" class="s2" d="m170.43 348.03q-0.41 0.04-0.55-0.07-0.15-0.11-0.22-0.33-0.15-0.4-0.26-0.83-0.11-0.42-0.26-1.04-0.03-0.08 0.04-0.2 0.07-0.13 0.26-0.1 1.39 0.19 3.8 0.24 2.4 0.06 5.3 0.06 2.83 0 5.87-0.08 3.05-0.07 5.88-0.18 2.82-0.11 5.05-0.29 2.22-0.19 3.43-0.41 0.36-0.07 0.48 0.04 0.1 0.11 0.14 0.29l0.22 1.77q0 0.18-0.11 0.33-0.11 0.14-0.59 0.14-1.24-0.03-2.9-0.03-1.65 0-3.52 0-4.59 0-8.88 0.09-4.3 0.09-7.71 0.24-3.42 0.14-5.47 0.36zm6.42-10.28q-1.28 0.04-1.82-0.69-0.53-0.74-0.49-2.5v-6.09q0-1.29-0.19-2.22-0.18-0.94-0.36-1.31-0.11-0.22 0-0.38 0.11-0.17 0.29-0.17 0.26 0 0.92 0.04 0.66 0.04 1.39 0.07 1.25 0.04 3.01 0.02 1.77-0.02 3.77-0.09 2-0.07 3.91-0.15 2.16-0.07 3.74-0.22 1.58-0.15 2.53-0.26 0.12 0 0.26 0.04 0.15 0.04 0.19 0.22l0.11 0.99q0.03 0.15 0.03 0.28 0 0.13 0 0.27 0.08 0.41-0.44 0.41-1.03 0-1.98 0.02-0.96 0.01-2.02 0.05l-12.85 0.33v7.71q0 1.1 0.19 1.43 0.18 0.33 0.77 0.37 0.91 0.04 2.31 0.04 1.39 0 2.9-0.04 1.5-0.04 2.81-0.09 1.3-0.06 2-0.09 1.98-0.08 3.47-0.22 1.48-0.15 2.4-0.34 0.37-0.07 0.48 0.02 0.11 0.1 0.15 0.28 0.07 0.4 0.09 0.79 0.02 0.38 0.05 0.86 0 0.22-0.13 0.29-0.13 0.08-0.64 0.08-3.93 0-8.28 0.09-4.35 0.09-8.57 0.16z"/>
					<path id="&lt;Compound Path&gt;" class="s2" d="m203.39 343.44q-0.4 0.04-0.51-0.03-0.11-0.08-0.22-0.41-0.15-0.4-0.24-0.75-0.09-0.35-0.24-0.97-0.04-0.07 0.04-0.18 0.07-0.11 0.26-0.08 0.58 0.08 1.92 0.11 1.34 0.04 3.03 0-0.04-2.2-0.07-4.37-0.04-2.16-0.11-4.14-0.08-1.4-0.24-2.3-0.17-0.9-0.35-1.27-0.07-0.18 0.02-0.27 0.09-0.09 0.24-0.09h2.42q0.18 0 0.22 0.09 0.04 0.09 0.04 0.27-0.04 0.81-0.04 1.82 0 1.01 0 2.33l-0.04 7.9q0.52 0 1.33-0.04 0.8-0.04 1.67-0.09 0.86-0.06 1.57-0.1 0.72-0.03 1.05-0.07 0.07-1.87 0.18-3.98 0.11-2.11 0.15-4.09 0.07-1.4-0.02-2.57-0.09-1.18-0.27-1.55-0.08-0.18 0.02-0.27 0.09-0.09 0.23-0.09 0.3 0 1.09 0.01 0.79 0.02 1.45 0.1 0.25 0 0.18 0.36-0.15 1.47-0.22 2.44-0.07 0.98-0.15 2.3-0.03 0.4-0.11 1.27-0.07 0.86-0.13 1.92-0.05 1.07-0.12 2.13-0.08 1.07-0.11 1.84 1.61-0.19 3.13-0.46 1.53-0.28 2.89-0.68 0.25-0.11 0.33 0.18l0.18 1.03q0.04 0.29-0.05 0.41-0.1 0.11-0.32 0.18 0 0.04-0.03 0.04-0.77 0.25-2.35 0.51-1.58 0.26-3.55 0.48-1.96 0.22-3.89 0.38-1.92 0.17-3.39 0.28-1.99 0.14-3.82 0.25-1.84 0.11-3.05 0.22zm0.96-15.96q-0.37 0.07-0.48-0.06-0.11-0.13-0.18-0.35-0.04-0.03-0.04-0.07-0.15-0.41-0.24-0.75-0.09-0.35-0.16-0.83-0.04-0.26 0.29-0.26 1.03 0.08 2.2 0.11 1.18 0.04 2.94 0 1.72 0 3.61-0.09 1.9-0.09 3.14-0.16 1.22-0.08 2.57-0.21 1.36-0.12 2.76-0.31 0.11-0.04 0.25 0.02 0.15 0.06 0.19 0.24 0.07 0.37 0.14 0.86 0.08 0.5 0.11 0.83 0.08 0.4-0.44 0.4-0.69-0.04-1.63-0.04-0.94 0-1.67 0-0.81 0-2.22 0.04-1.41 0.04-2.92 0.09-1.51 0.06-2.68 0.09-1.17 0.04-1.54 0.08-0.92 0.03-2 0.15-1.09 0.11-2 0.22zm21.03 25q-0.14 0-0.14-0.19v-26.5q0-1.4-0.1-2.59-0.09-1.19-0.27-1.56-0.08-0.18 0.02-0.28 0.09-0.09 0.24-0.09 0.22 0 0.75 0.02 0.53 0.02 1.04 0.04 0.52 0.01 0.59 0.01 0.18 0 0.19 0.3-0.12 1.36-0.13 2.37-0.02 1.01-0.02 2.33v8.59q0.99 0 2.15-0.09 1.15-0.1 2.16-0.22 1.01-0.13 1.53-0.28 0.33-0.04 0.36 0.22 0.08 0.48 0.11 0.96 0.04 0.47 0.08 0.95 0 0.4-0.33 0.4-0.56-0.07-1.6-0.07-1.05 0-2.22 0-1.18 0-2.24 0.04v14.72q0 0.55-0.06 0.66-0.05 0.11-0.24 0.15z"/>
					<path id="&lt;Compound Path&gt;" class="s2" d="m237.61 348.4q-0.41 0.04-0.55-0.07-0.15-0.11-0.22-0.33-0.15-0.41-0.26-0.83-0.11-0.42-0.26-1.05-0.04-0.07 0.04-0.2 0.07-0.13 0.26-0.09 1.39 0.19 3.79 0.24 2.41 0.05 5.31 0.05 2.83 0.01 5.87-0.07 3.05-0.07 5.88-0.18 2.82-0.11 5.05-0.3 2.22-0.18 3.43-0.4 0.36-0.07 0.47 0.04 0.11 0.11 0.15 0.29l0.22 1.76q0 0.19-0.11 0.33-0.11 0.15-0.59 0.15-1.24-0.04-2.9-0.04-1.65 0-3.52 0-4.59 0-8.88 0.09-4.3 0.1-7.71 0.24-3.42 0.15-5.47 0.37zm6.35-9.14q-1.29 0.04-1.8-0.7-0.52-0.73-0.52-2.49v-7.68q0-1.28-0.18-2.22-0.18-0.93-0.37-1.3-0.11-0.22-0.01-0.39 0.09-0.16 0.23-0.16 0.26 0 0.94 0.04 0.68 0.03 1.45 0.07 1.21 0.04 2.94 0.02 1.72-0.02 3.69-0.09 1.96-0.08 3.87-0.15 2.17-0.07 3.76-0.2 1.6-0.13 2.55-0.24 0.11 0 0.26 0.03 0.15 0.04 0.18 0.22l0.15 0.96q0.04 0.15 0.04 0.26 0 0.11 0 0.25 0.03 0.19-0.08 0.3-0.11 0.14-0.36 0.14-1.03 0-2.02 0-0.99 0-2.06 0.04l-12.66 0.29v4.45q2.13 0.03 4.62 0 2.5-0.04 4.87-0.13 2.36-0.09 4.2-0.22 1.84-0.13 2.61-0.24 0.4-0.07 0.47 0.02 0.08 0.09 0.11 0.27v0.04l0.11 1.36q0.04 0.18-0.05 0.27-0.09 0.09-0.57 0.09-0.4 0-1.85 0.02-1.45 0.02-3.47 0.06-2.02 0.03-4.15 0.07-2.13 0.04-3.98 0.09-1.86 0.06-2.92 0.09v3.16q0 1.1 0.18 1.43 0.18 0.33 0.77 0.37 0.92 0.04 2.32 0.04 1.39 0 2.89-0.04 1.51-0.04 2.81-0.09 1.31-0.06 2-0.09 1.99-0.08 3.47-0.21 1.49-0.12 2.41-0.31 0.36-0.07 0.48 0.02 0.1 0.09 0.14 0.28l0.15 1.54q0.04 0.22-0.11 0.29-0.15 0.08-0.66 0.08-3.93 0-8.28 0.11-4.35 0.11-8.57 0.18z"/>
				</g>
				<path id="&lt;Compound Path&gt;" class="s2" d="m292.51 320.35v34.88h-1.83v-34.88z"/>
				<g id="&lt;Group&gt;">
					<path id="&lt;Compound Path&gt;" class="s2" d="m320.4 346.77v-23.91q0-0.21 0.21-0.21h12.53q0.21 0 0.21 0.21v1.54q0 0.21-0.21 0.21h-10.46v8.26h8.89q0.21 0 0.21 0.21v1.54q0 0.21-0.21 0.21h-8.89v10.15h6.02q1.92 0.01 3.32-0.21 1.4-0.21 2.31-0.45 0.21-0.03 0.25 0.14l0.35 1.58q0.07 0.17-0.14 0.24-2.1 0.7-6.09 0.7h-8.09q-0.21 0-0.21-0.21z"/>
					<path id="&lt;Compound Path&gt;" class="s2" d="m351.21 330.88q0.28 0 0.14 0.24l-5.99 15.69q-0.07 0.17-0.24 0.17h-1.65q-0.14 0-0.24-0.17l-6.2-15.69q-0.07-0.24 0.14-0.24h1.93q0.17 0 0.24 0.17l4.94 13.16 4.86-13.16q0.04-0.17 0.25-0.17z"/>
					<path id="&lt;Compound Path&gt;" class="s2" d="m355.34 339q0 2.97 1.28 4.67 1.28 1.7 3.9 1.84 1.75 0.07 2.94-0.54 1.19-0.61 1.96-1.25 0.14-0.1 0.25 0.04l0.87 1.4q0.07 0.1-0.03 0.21-1.23 1.16-2.75 1.66-1.52 0.51-3.24 0.48-3.4-0.07-5.39-2.26-2-2.19-2-6.22 0-2.59 0.91-4.55 0.91-1.96 2.54-3.04 1.63-1.09 3.84-1.09 2.94 0 4.65 1.94 1.72 1.95 1.72 5.31 0 0.17 0 0.37 0 0.19-0.04 0.57-0.07 0.35-0.35 0.35l-11.06 0.07zm0.14-1.89l9-0.03q0.17-2.17-1-3.49-1.17-1.31-3.17-1.31-1.92 0-3.19 1.26-1.26 1.26-1.64 3.57z"/>
					<path id="&lt;Compound Path&gt;" class="s2" d="m373.33 346.81q0 0.17-0.17 0.17h-1.82q-0.18 0-0.18-0.17v-15.76q0-0.17 0.18-0.17h1.47q0.17 0 0.17 0.17l0.28 2.03q0.91-1.33 2.26-2.01 1.35-0.68 2.57-0.68 0.49 0 1.02 0.1 0.52 0.11 0.87 0.39 0.14 0.07 0.07 0.21l-0.7 1.71q-0.07 0.18-0.24 0.11-0.95-0.42-1.75-0.42-1.54 0-2.61 1.17-1.07 1.17-1.42 2.99z"/>
					<path id="&lt;Compound Path&gt;" class="s2" d="m388.81 343.93l4.69-12.88q0.07-0.17 0.24-0.17h1.93q0.28 0 0.14 0.24l-6.09 15.72q-0.35 0.95-0.9 2.12-0.54 1.17-1.36 2.24-0.82 1.07-2.03 1.75-1.21 0.68-2.89 0.68-0.25 0-0.54-0.02-0.3-0.01-0.48-0.05-0.21-0.07-0.17-0.24l0.21-1.51q0-0.24 0.24-0.17 0.22 0.03 0.42 0.03 0.21 0 0.39 0 1.47 0 2.45-0.75 0.98-0.75 1.65-1.91 0.66-1.15 1.12-2.38l-6.69-15.51q-0.07-0.24 0.14-0.24h1.96q0.17 0 0.25 0.17z"/>
					<path id="&lt;Compound Path&gt;" class="s2" d="m410.06 342.88q0.14-0.13 0.28 0 0.91 1.09 2.62 1.86 1.72 0.77 3.75 0.77 2.62 0 4.27-1.24 1.64-1.24 1.64-3.7 0-1.61-0.75-2.59-0.75-0.98-2.12-1.62-1.36-0.65-3.18-1.18-1.05-0.31-2.3-0.75-1.24-0.44-2.34-1.19-1.1-0.75-1.77-1.93-0.66-1.17-0.59-2.88 0.1-2.73 2.08-4.52 1.98-1.79 5.48-1.79 2.62 0 4.46 0.88 1.84 0.87 2.71 1.86 0.11 0.1 0 0.28l-1.15 1.33q-0.11 0.17-0.28 0-0.7-0.84-2.19-1.61-1.49-0.77-3.59-0.77-2.34 0-3.78 1.12-1.43 1.12-1.43 3.08 0 1.61 0.78 2.53 0.79 0.93 2.04 1.42 1.24 0.49 2.57 0.88 1.22 0.35 2.55 0.85 1.33 0.51 2.49 1.32 1.15 0.8 1.87 2.08 0.72 1.28 0.72 3.17 0 2.24-1.05 3.8-1.05 1.56-2.91 2.36-1.85 0.81-4.3 0.81-2.59 0-4.69-0.88-2.1-0.87-3.12-2.17-0.07-0.1 0.04-0.28z"/>
					<path id="&lt;Compound Path&gt;" class="s2" d="m431.8 346.81q0 0.17-0.18 0.17h-1.82q-0.17 0-0.17-0.17v-15.76q0-0.17 0.17-0.17h1.47q0.18 0 0.18 0.17l0.28 1.96q0.87-1.12 2.25-1.89 1.39-0.77 3.21-0.77 3.5 0 4.58 3.05 0.88-1.26 2.31-2.16 1.44-0.89 3.43-0.89 2.49 0 3.77 1.56 1.27 1.56 1.28 4.57v10.33q0 0.17-0.18 0.17h-1.82q-0.18 0-0.18-0.17v-10.26q0-2.17-0.85-3.19-0.86-1.01-2.51-1.01-1.47 0-2.74 0.84-1.28 0.84-2.09 2.34 0.04 0.46 0.04 0.95v10.33q0 0.17-0.18 0.17h-1.82q-0.17 0-0.17-0.17v-10.26q0-2.17-0.86-3.19-0.86-1.01-2.5-1.01-1.51 0-2.82 0.87-1.31 0.88-2.08 2.49z"/>
					<path id="&lt;Compound Path&gt;" class="s2" d="m457.39 332.49q-0.07-0.18 0.07-0.28 1.47-0.91 3.11-1.39 1.65-0.47 3.19-0.47 5.77 0 5.77 5.78v8.26q0 0.6 0.32 0.82 0.31 0.23 0.77 0.23 0.14 0 0.14 0.21l-0.18 1.54q0 0.14-0.17 0.14-0.98 0-1.82-0.52-0.84-0.53-1.12-1.61-0.98 1.15-2.47 1.73-1.49 0.58-3.03 0.58-1.29 0-2.5-0.49-1.21-0.49-1.96-1.62-0.75-1.12-0.75-3.01 0-2.2 1.4-3.43 1.4-1.22 3.81-1.69 2.42-0.48 5.39-0.48v-0.59q0-2.14-0.99-3.03-1-0.89-2.86-0.89-1.19 0-2.54 0.42-1.34 0.42-2.46 1.22-0.18 0.18-0.28-0.03zm9.97 9.59v-3.36q-0.17-0.04-0.36-0.04-0.2 0-0.41 0-2.13 0-3.86 0.34-1.74 0.33-2.75 1.15-1.02 0.82-1.02 2.29 0 1.68 1.04 2.38 1.03 0.7 2.32 0.7 1.51 0 2.96-0.84 1.45-0.84 2.08-2.62z"/>
					<path id="&lt;Compound Path&gt;" class="s2" d="m477.31 346.81q0 0.17-0.18 0.17h-1.82q-0.17 0-0.17-0.17v-15.76q0-0.17 0.17-0.17h1.47q0.18 0 0.18 0.17l0.28 2.03q0.91-1.33 2.25-2.01 1.35-0.68 2.58-0.68 0.49 0 1.01 0.1 0.53 0.11 0.88 0.39 0.14 0.07 0.07 0.21l-0.7 1.71q-0.07 0.18-0.25 0.11-0.94-0.42-1.75-0.42-1.54 0-2.61 1.17-1.06 1.17-1.41 2.99z"/>
					<path id="&lt;Compound Path&gt;" class="s2" d="m487.74 342.5v-9.7h-2.24q-0.21 0-0.21-0.21v-1.5q0-0.21 0.21-0.21h2.24v-3.29q0-0.14 0.1-0.18l1.96-0.52q0.18-0.04 0.18 0.17v3.82h5.07q0.21 0 0.21 0.21v1.5q0 0.21-0.21 0.21h-5.07l0.03 9.77q0 1.78 0.79 2.36 0.79 0.58 1.87 0.58 0.6 0 1.46-0.21 0.85-0.21 1.41-0.53 0.21-0.1 0.28 0.11l0.49 1.51q0.07 0.17-0.1 0.24-0.98 0.46-2.08 0.67-1.11 0.21-1.98 0.21-1.89 0-3.15-1.2-1.26-1.18-1.26-3.81z"/>
					<path id="&lt;Compound Path&gt;" class="s2" d="m509.79 336.13v2.1h-10.85v-2.1z"/>
					<path id="&lt;Compound Path&gt;" class="s2" d="m515.74 346.77v-23.91q0-0.21 0.21-0.21h12.19q0.21 0 0.21 0.21v1.54q0 0.21-0.21 0.21h-10.12v8.26h8.54q0.21 0 0.21 0.21v1.54q0 0.21-0.21 0.21h-8.54v11.94q0 0.21-0.21 0.21h-1.86q-0.21 0-0.21-0.21z"/>
					<path id="&lt;Compound Path&gt;" class="s2" d="m531.25 332.49q-0.07-0.18 0.07-0.28 1.47-0.91 3.12-1.39 1.64-0.47 3.18-0.47 5.78 0 5.78 5.78v8.26q0 0.6 0.32 0.82 0.31 0.23 0.77 0.23 0.14 0 0.14 0.21l-0.18 1.54q0 0.14-0.17 0.14-0.99 0-1.82-0.52-0.85-0.53-1.12-1.61-0.99 1.15-2.47 1.73-1.49 0.58-3.03 0.58-1.3 0-2.5-0.49-1.21-0.49-1.96-1.62-0.76-1.12-0.76-3.01 0-2.2 1.4-3.43 1.4-1.22 3.82-1.69 2.41-0.48 5.39-0.48v-0.59q0-2.14-1-3.03-1-0.89-2.85-0.89-1.19 0-2.54 0.42-1.35 0.42-2.47 1.22-0.17 0.18-0.28-0.03zm9.98 9.59v-3.36q-0.17-0.04-0.37-0.04-0.19 0-0.4 0-2.13 0-3.87 0.34-1.73 0.33-2.75 1.15-1.01 0.82-1.01 2.29 0 1.68 1.03 2.38 1.03 0.7 2.33 0.7 1.5 0 2.96-0.84 1.45-0.84 2.08-2.62z"/>
					<path id="&lt;Compound Path&gt;" class="s2" d="m551.17 346.81q0 0.17-0.17 0.17h-1.82q-0.18 0-0.18-0.17v-15.76q0-0.17 0.18-0.17h1.47q0.17 0 0.17 0.17l0.28 2.03q0.91-1.33 2.26-2.01 1.35-0.68 2.57-0.68 0.49 0 1.02 0.1 0.52 0.11 0.87 0.39 0.14 0.07 0.07 0.21l-0.7 1.71q-0.07 0.18-0.24 0.11-0.95-0.42-1.75-0.42-1.54 0-2.61 1.17-1.07 1.17-1.42 2.99z"/>
					<path id="&lt;Compound Path&gt;" class="s2" d="m563.42 346.81q0 0.17-0.17 0.17h-1.82q-0.18 0-0.18-0.17v-15.76q0-0.17 0.18-0.17h1.47q0.17 0 0.17 0.17l0.29 1.96q0.87-1.12 2.25-1.89 1.39-0.77 3.21-0.77 3.5 0 4.58 3.05 0.88-1.26 2.31-2.16 1.44-0.89 3.43-0.89 2.49 0 3.77 1.56 1.27 1.56 1.28 4.57v10.33q-0.01 0.17-0.18 0.17h-1.82q-0.18 0-0.18-0.17v-10.26q0-2.17-0.85-3.19-0.86-1.01-2.51-1.01-1.47 0-2.74 0.84-1.28 0.84-2.09 2.34 0.04 0.46 0.04 0.95v10.33q0 0.17-0.18 0.17h-1.82q-0.17 0-0.17-0.17v-10.26q0-2.17-0.86-3.19-0.86-1.01-2.5-1.01-1.51 0-2.82 0.87-1.32 0.88-2.09 2.49z"/>
					<path id="&lt;Compound Path&gt;" class="s2" d="m600.5 342.88q0.14-0.13 0.28 0 0.91 1.09 2.62 1.86 1.72 0.77 3.75 0.77 2.62 0 4.27-1.24 1.65-1.24 1.65-3.7 0-1.61-0.76-2.59-0.75-0.98-2.11-1.62-1.37-0.65-3.19-1.18-1.05-0.31-2.29-0.75-1.25-0.44-2.35-1.19-1.1-0.75-1.77-1.93-0.66-1.17-0.59-2.88 0.1-2.73 2.08-4.52 1.98-1.79 5.48-1.79 2.63 0 4.46 0.88 1.84 0.87 2.72 1.86 0.1 0.1 0 0.28l-1.16 1.33q-0.1 0.17-0.28 0-0.7-0.84-2.19-1.61-1.48-0.77-3.58-0.77-2.35 0-3.79 1.12-1.43 1.12-1.43 3.08 0 1.61 0.79 2.53 0.78 0.93 2.03 1.42 1.24 0.49 2.57 0.88 1.22 0.35 2.56 0.85 1.33 0.51 2.48 1.32 1.16 0.8 1.87 2.08 0.72 1.28 0.72 3.17 0 2.24-1.05 3.8-1.05 1.56-2.9 2.36-1.86 0.81-4.31 0.81-2.59 0-4.69-0.88-2.1-0.87-3.12-2.17-0.07-0.1 0.04-0.28z"/>
					<path id="&lt;Compound Path&gt;" class="s2" d="m620.42 342.5v-9.7h-2.24q-0.21 0-0.21-0.21v-1.5q0-0.21 0.21-0.21h2.24v-3.29q0-0.14 0.1-0.18l1.96-0.52q0.18-0.04 0.18 0.17v3.82h5.07q0.21 0 0.21 0.21v1.5q0 0.21-0.21 0.21h-5.07l0.03 9.77q0 1.78 0.79 2.36 0.79 0.58 1.87 0.58 0.6 0 1.46-0.21 0.85-0.21 1.41-0.53 0.21-0.1 0.28 0.11l0.49 1.51q0.07 0.17-0.1 0.24-0.98 0.46-2.08 0.67-1.11 0.21-1.98 0.21-1.89 0-3.15-1.2-1.26-1.18-1.26-3.81z"/>
					<path id="&lt;Compound Path&gt;" class="s2" d="m631.37 332.49q-0.07-0.18 0.07-0.28 1.47-0.91 3.12-1.39 1.65-0.47 3.19-0.47 5.77 0 5.77 5.78v8.26q0 0.6 0.32 0.82 0.31 0.23 0.77 0.23 0.14 0 0.14 0.21l-0.18 1.54q0 0.14-0.17 0.14-0.98 0-1.82-0.52-0.84-0.53-1.12-1.61-0.98 1.15-2.47 1.73-1.49 0.58-3.03 0.58-1.3 0-2.5-0.49-1.21-0.49-1.96-1.62-0.76-1.12-0.76-3.01 0-2.2 1.4-3.43 1.4-1.22 3.82-1.69 2.42-0.48 5.39-0.48v-0.59q0-2.14-1-3.03-0.99-0.89-2.85-0.89-1.19 0-2.54 0.42-1.35 0.42-2.47 1.22-0.17 0.18-0.28-0.03zm9.98 9.59v-3.36q-0.17-0.04-0.37-0.04-0.19 0-0.4 0-2.13 0-3.87 0.34-1.73 0.33-2.74 1.15-1.02 0.82-1.02 2.29 0 1.68 1.03 2.38 1.04 0.7 2.33 0.7 1.51 0 2.96-0.84 1.45-0.84 2.08-2.62z"/>
					<path id="&lt;Compound Path&gt;" class="s2" d="m651.29 346.81q0 0.17-0.17 0.17h-1.82q-0.18 0-0.18-0.17v-15.76q0-0.17 0.18-0.17h1.47q0.17 0 0.17 0.17l0.28 2.03q0.91-1.33 2.26-2.01 1.35-0.68 2.57-0.68 0.5 0 1.02 0.1 0.53 0.11 0.88 0.39 0.13 0.07 0.07 0.21l-0.7 1.71q-0.08 0.18-0.25 0.11-0.95-0.42-1.75-0.42-1.54 0-2.61 1.17-1.07 1.17-1.42 2.99z"/>
					<path id="&lt;Compound Path&gt;" class="s2" d="m661.73 342.5v-9.7h-2.24q-0.21 0-0.21-0.21v-1.5q0-0.21 0.21-0.21h2.24v-3.29q0-0.14 0.1-0.18l1.96-0.52q0.18-0.04 0.18 0.17v3.82h5.07q0.21 0 0.21 0.21v1.5q0 0.21-0.21 0.21h-5.07l0.03 9.77q0 1.78 0.79 2.36 0.79 0.58 1.87 0.58 0.6 0 1.46-0.21 0.85-0.21 1.41-0.53 0.21-0.1 0.28 0.11l0.49 1.51q0.07 0.17-0.1 0.24-0.98 0.46-2.08 0.67-1.11 0.21-1.98 0.21-1.89 0-3.15-1.2-1.26-1.18-1.26-3.81z"/>
					<path id="&lt;Compound Path&gt;" class="s2" d="m682.77 334.06q-0.18 0.11-0.28 0-0.46-0.7-1.53-1.24-1.07-0.54-2.5-0.54-0.95 0-1.82 0.24-0.88 0.25-1.44 0.81-0.56 0.56-0.56 1.47 0 1.08 0.98 1.71 0.98 0.63 3.43 1.16 2.31 0.49 3.79 1.64 1.47 1.16 1.47 3.19 0 1.71-0.9 2.82-0.89 1.1-2.31 1.64-1.42 0.55-2.96 0.55-2.17 0-3.95-0.88-1.79-0.87-2.49-2.63-0.07-0.17 0.11-0.28l1.43-0.77q0.07-0.03 0.18-0.03 0.1 0 0.14 0.14 0.56 1.23 1.84 1.87 1.27 0.65 2.71 0.65 1.64 0 2.82-0.68 1.17-0.69 1.17-2.19 0-1.65-1.19-2.29-1.19-0.65-3.08-1-2.42-0.46-3.9-1.54-1.49-1.09-1.49-3.08 0-1.58 0.87-2.56 0.88-0.98 2.26-1.43 1.38-0.46 2.85-0.46 1.93 0 3.31 0.63 1.38 0.63 2.23 1.68 0.1 0.14-0.04 0.32z"/>
					<path id="&lt;Compound Path&gt;" class="s2" d="m700.23 346.77v-23.91q0-0.21 0.21-0.21h6.41q4.06 0 5.99 1.79 1.92 1.78 1.92 4.58 0 2.7-1.5 4.48-1.51 1.79-3.89 2.59l3.57 5.53q0.98 1.47 1.65 2.24 0.66 0.78 1.28 1.02 0.61 0.25 1.31 0.28 0.21 0 0.21 0.21v1.54q0 0.21-0.21 0.21-1.23-0.03-2.23-0.44-0.99-0.4-1.94-1.36-0.94-0.97-2.03-2.65l-3.88-6.05q-2.21 0.31-4.59-0.07v10.22q0 0.21-0.21 0.21h-1.86q-0.21 0-0.21-0.21zm2.28-22.19v9.9q2.66 0.49 4.92 0.07 2.26-0.42 3.62-1.77 1.37-1.34 1.37-3.65 0-2.49-1.68-3.52-1.68-1.03-4.41-1.03z"/>
					<path id="&lt;Compound Path&gt;" class="s2" d="m721.97 326.85q-0.84 0-1.4-0.52-0.56-0.53-0.56-1.27 0-0.8 0.56-1.34 0.56-0.55 1.4-0.55 0.81 0 1.35 0.55 0.54 0.54 0.54 1.34 0 0.74-0.54 1.27-0.54 0.52-1.35 0.52zm1.05 19.96q0 0.17-0.17 0.17h-1.82q-0.18 0-0.18-0.17v-15.76q0-0.17 0.18-0.17h1.82q0.17 0 0.17 0.17z"/>
					<path id="&lt;Compound Path&gt;" class="s2" d="m729.39 347.68q0.21 0.07 0.11 0.28-0.07 0.21-0.11 0.49-0.03 0.28-0.03 0.56 0 1.33 1.22 2.1 1.23 0.77 3.89 0.77 2.31 0 3.8-0.91 1.49-0.91 1.49-2.41 0-1.12-1-1.75-1-0.63-2.82-0.6l-3.6 0.03q-1.58 0.04-2.56-0.84-0.98-0.87-0.98-1.96 0-0.73 0.31-1.54 0.32-0.8 0.95-1.47-1.23-0.73-1.89-1.9-0.67-1.18-0.63-2.65 0.03-1.64 0.87-2.89 0.84-1.24 2.3-1.96 1.45-0.71 3.34-0.68 1.65 0 2.98 0.63l4.83-0.45q0.21 0 0.21 0.21v1.5q0 0.21-0.21 0.21h-2.91q1.16 1.4 1.16 3.33 0 1.61-0.83 2.87-0.82 1.26-2.25 1.98-1.44 0.71-3.33 0.71-1.29 0-2.41-0.35-0.25 0.42-0.41 0.93-0.16 0.51-0.16 0.93 0 0.56 0.39 1.01 0.38 0.46 1.26 0.46l4.13-0.04q2.59-0.03 4.04 1.14 1.46 1.18 1.42 3.03 0 1.79-1.03 2.98-1.03 1.19-2.73 1.78-1.7 0.6-3.8 0.6-3.5-0.04-5.36-1.21-1.85-1.17-1.85-3.73 0-0.8 0.38-1.64 0.11-0.18 0.28-0.11zm4.31-8.19q1.93 0 3.12-1.02 1.19-1.01 1.19-2.69 0-1.65-1.14-2.61-1.14-0.96-2.96-0.96-1.92 0-3.1 1.03-1.17 1.03-1.17 2.78 0 1.58 1.12 2.52 1.12 0.95 2.94 0.95z"/>
					<path id="&lt;Compound Path&gt;" class="s2" d="m748.26 346.81q0 0.17-0.17 0.17h-1.82q-0.18 0-0.18-0.17v-24.86q0-0.18 0.18-0.18h1.82q0.17 0 0.17 0.18v10.75q1.02-1.02 2.45-1.68 1.44-0.67 3.22-0.67 2.59 0 3.94 1.51 1.35 1.5 1.35 4.76v10.19q0 0.17-0.17 0.17h-1.82q-0.18 0-0.18-0.17v-10.12q0-2.45-0.96-3.4-0.97-0.94-2.72-0.94-1.47 0-2.87 0.75-1.4 0.75-2.24 2.26z"/>
					<path id="&lt;Compound Path&gt;" class="s2" d="m765.35 342.5v-9.7h-2.24q-0.21 0-0.21-0.21v-1.5q0-0.21 0.21-0.21h2.24v-3.29q0-0.14 0.1-0.18l1.96-0.52q0.18-0.04 0.18 0.17v3.82h5.07q0.21 0 0.21 0.21v1.5q0 0.21-0.21 0.21h-5.07l0.03 9.77q0 1.78 0.79 2.36 0.79 0.58 1.87 0.58 0.6 0 1.46-0.21 0.85-0.21 1.41-0.53 0.21-0.1 0.28 0.11l0.49 1.51q0.07 0.17-0.1 0.24-0.98 0.46-2.08 0.67-1.11 0.21-1.98 0.21-1.89 0-3.15-1.2-1.26-1.18-1.26-3.81z"/>
				</g>
			</g>
			<path id="&lt;Path&gt;" class="s3" d="m68.93 300.71v3.4h712.54v-3.4z"/>
		</g>
	</g>
</svg>